<?xml version="1.0" encoding="utf-8"?><!-- Uploaded to: SVG Repo, www.svgrepo.com, Generator: SVG Repo Mixer Tools -->
<svg width="800px" height="800px" viewBox="0 0 24 24" fill="none" xmlns="http://www.w3.org/2000/svg">
<path d="M10 21L7.18762 18.9912C4.55966 17.1141 3 14.0834 3 10.8538L3 5.75432C3 5.30784 3.29598 4.91546 3.72528 4.7928L9.72528 3.07852C9.90483 3.02721 10.0952 3.02721 10.2747 3.07852L16.2747 4.7928C16.704 4.91546 17 5.30784 17 5.75432V7.50002M19 15V13C19 11.8955 18.1046 11 17 11C15.8954 11 15 11.8955 15 13V15M19 15H15M19 15C20.1046 15 21 15.8955 21 17V19C21 20.1046 20.1046 21 19 21H15C13.8954 21 13 20.1046 13 19V17C13 15.8955 13.8954 15 15 15" stroke="#000000" stroke-width="2" stroke-linecap="round" stroke-linejoin="round"/>
</svg>