<?xml version="1.0" encoding="UTF-8" standalone="no" ?>
<!DOCTYPE svg PUBLIC "-//W3C//DTD SVG 1.1//EN" "http://www.w3.org/Graphics/SVG/1.1/DTD/svg11.dtd">
<svg xmlns="http://www.w3.org/2000/svg" xmlns:xlink="http://www.w3.org/1999/xlink" version="1.1" width="1080" height="1080" viewBox="0 0 1080 1080" xml:space="preserve">
<desc>Created with Fabric.js 5.2.4</desc>
<defs>
</defs>
<g transform="matrix(1 0 0 1 540 540)" id="0ff307d6-335a-4672-88f5-d597e93830c9"  >
<rect style="stroke: none; stroke-width: 1; stroke-dasharray: none; stroke-linecap: butt; stroke-dashoffset: 0; stroke-linejoin: miter; stroke-miterlimit: 4; fill: rgb(255,255,255); fill-rule: nonzero; opacity: 1; visibility: hidden;" vector-effect="non-scaling-stroke"  x="-540" y="-540" rx="0" ry="0" width="1080" height="1080" />
</g>
<g transform="matrix(1 0 0 1 540 540)" id="f1631c9c-9b28-4252-a30c-16455f91592e"  >
</g>
<g transform="matrix(2.77 0 0 2.77 540 540)"  >
<g style="" vector-effect="non-scaling-stroke"   >
		<g transform="matrix(0.1 0 0 -0.1 0 -20.95)"  >
<path style="stroke: none; stroke-width: 1; stroke-dasharray: none; stroke-linecap: butt; stroke-dashoffset: 0; stroke-linejoin: miter; stroke-miterlimit: 4; fill: rgb(0,0,0); fill-rule: nonzero; opacity: 1;" vector-effect="non-scaling-stroke"  transform=" translate(-2626.81, -2681.1)" d="M 1060 3991 C 969 3963 882 3887 841 3800 L 815 3745 L 815 2680 L 815 1615 L 837 1567 C 870 1497 940 1427 1013 1394 L 1075 1365 L 2625 1365 L 4175 1365 L 4232 1392 C 4341 1443 4412 1539 4431 1662 C 4437 1701 4440 2106 4438 2725 L 4435 3725 L 4412 3782 C 4381 3858 4313 3932 4242 3967 L 4185 3995 L 2635 3997 C 1783 3998 1074 3995 1060 3991 z M 2072 3386 C 2262 3345 2446 3205 2540 3029 C 2585 2944 2580 2911 2519 2880 C 2473 2856 2427 2854 2406 2875 C 2398 2883 2381 2911 2368 2937 C 2340 2994 2262 3081 2204 3121 C 2100 3192 1931 3226 1808 3201 C 1634 3164 1468 3010 1415 2833 C 1393 2761 1395 2597 1420 2519 C 1468 2361 1601 2228 1758 2180 C 1846 2153 1985 2153 2073 2180 C 2197 2218 2305 2309 2369 2430 C 2407 2500 2434 2517 2486 2500 C 2541 2482 2570 2453 2570 2417 C 2570 2366 2504 2263 2410 2170 C 2342 2101 2308 2076 2240 2043 C 2118 1983 2047 1967 1910 1967 C 1702 1967 1565 2024 1414 2174 C 1278 2310 1217 2444 1204 2635 C 1188 2859 1274 3072 1442 3224 C 1516 3292 1656 3364 1750 3384 C 1835 3403 1988 3403 2072 3386 z M 3595 3372 C 3773 3315 3932 3184 4010 3029 C 4055 2942 4050 2911 3989 2880 C 3942 2855 3898 2854 3878 2878 C 3870 2887 3850 2919 3834 2949 C 3792 3028 3699 3115 3615 3155 C 3403 3255 3186 3219 3025 3056 C 2947 2977 2908 2913 2885 2825 C 2865 2748 2866 2609 2886 2539 C 2939 2360 3078 2221 3251 2175 C 3330 2153 3465 2156 3542 2180 C 3668 2219 3787 2320 3844 2437 C 3875 2500 3905 2517 3956 2500 C 4009 2482 4040 2452 4040 2418 C 4040 2379 3990 2285 3933 2218 C 3737 1989 3432 1906 3146 2006 C 2931 2081 2751 2276 2693 2500 C 2670 2588 2670 2773 2693 2860 C 2765 3133 2987 3342 3260 3394 C 3320 3405 3536 3391 3595 3372 z" stroke-linecap="round" />
</g>
		<g transform="matrix(1 0 0 1 -1.86 141.58)"  >
<rect style="stroke: rgb(0,255,255); stroke-width: 2; stroke-dasharray: none; stroke-linecap: round; stroke-dashoffset: 0; stroke-linejoin: round; stroke-miterlimit: 4; fill: rgb(0,242,255); fill-rule: nonzero; opacity: 1;" vector-effect="non-scaling-stroke"  x="-169.975" y="-2.4815" rx="0" ry="0" width="339.95" height="4.963" />
</g>
</g>
</g>
</svg>