<?xml version="1.0" encoding="UTF-8" standalone="no" ?>
<!DOCTYPE svg PUBLIC "-//W3C//DTD SVG 1.1//EN" "http://www.w3.org/Graphics/SVG/1.1/DTD/svg11.dtd">
<svg xmlns="http://www.w3.org/2000/svg" xmlns:xlink="http://www.w3.org/1999/xlink" version="1.1" width="450" height="100" viewBox="0 0 450 100" xml:space="preserve">
<desc>Created with Fabric.js 5.2.4</desc>
<defs>
</defs>
<g transform="matrix(0 0 0 0 0 0)" id="39caed77-5936-4a41-b60d-c3804d10bce5"  >
</g>
<g transform="matrix(1 0 0 1 225 50)" id="93e564a2-e17d-4b13-ad50-4888e9828739"  >
<rect style="stroke: none; stroke-width: 1; stroke-dasharray: none; stroke-linecap: butt; stroke-dashoffset: 0; stroke-linejoin: miter; stroke-miterlimit: 4; fill: rgb(255,255,255); fill-rule: nonzero; opacity: 1; visibility: hidden;" vector-effect="non-scaling-stroke"  x="-225" y="-50" rx="0" ry="0" width="450" height="100" />
</g>
<g transform="matrix(1.71 0 0 1.71 225 50)"  >
<g style="" vector-effect="non-scaling-stroke"   >
		<g transform="matrix(0.5 0 0 0.5 -87.13 0)"  >
<path style="stroke: none; stroke-width: 1; stroke-dasharray: none; stroke-linecap: butt; stroke-dashoffset: 0; stroke-linejoin: miter; stroke-miterlimit: 4; fill: rgb(255,0,0); fill-rule: nonzero; opacity: 1;" vector-effect="non-scaling-stroke"  transform=" translate(-81.75, -57.25)" d="M 159.889142 17.9305215 C 157.980727 10.8778981 152.47152 5.36869078 145.418897 3.46027607 C 132.731218 0 81.6659313 0 81.6659313 0 C 81.6659313 0 30.600645 0.104856851 17.9129661 3.56513292 C 10.8603427 5.47354763 5.35113537 10.9827549 3.44272066 18.0353783 C -0.395040075 40.5796012 -1.88400735 74.9307055 3.54757751 96.5731595 C 5.45599222 103.625783 10.9651995 109.13499 18.0178229 111.043405 C 30.7055018 114.503681 81.7707881 114.503681 81.7707881 114.503681 C 81.7707881 114.503681 132.836074 114.503681 145.523753 111.043405 C 152.576377 109.13499 158.085584 103.625783 159.993999 96.5731595 C 164.041473 73.9974796 165.28927 39.6673466 159.889142 17.9305215 Z" stroke-linecap="round" />
</g>
		<g transform="matrix(0.5 0 0 0.5 -84.7 0)"  >
<polygon style="stroke: none; stroke-width: 1; stroke-dasharray: none; stroke-linecap: butt; stroke-dashoffset: 0; stroke-linejoin: miter; stroke-miterlimit: 4; fill: rgb(255,255,255); fill-rule: nonzero; opacity: 1;" vector-effect="non-scaling-stroke"  points="-21.18,24.54 21.18,0 -21.18,-24.54 " />
</g>
		<g transform="matrix(0.5 0 0 0.5 44.88 -0.65)"  >
<path style="stroke: none; stroke-width: 1; stroke-dasharray: none; stroke-linecap: butt; stroke-dashoffset: 0; stroke-linejoin: miter; stroke-miterlimit: 4; fill: rgb(255,255,255); fill-rule: nonzero; opacity: 1;" vector-effect="non-scaling-stroke"  transform=" translate(-345.75, -55.94)" d="M 491.23679 33.2396217 C 496.794203 33.2396217 500.988477 34.2881902 503.924469 36.2804703 C 506.860461 38.2727505 508.957598 41.418456 510.21588 45.7175869 C 511.474162 50.0167178 511.998447 55.8887014 511.998447 63.4383947 L 511.998447 75.7066462 L 485.050236 75.7066462 L 485.050236 79.4814928 L 485.469663 89.8623211 C 485.784234 92.1691718 486.308518 93.8468814 487.147373 94.8954499 C 487.986228 95.9440184 489.349367 96.4683027 491.131933 96.4683027 C 493.543641 96.4683027 495.221351 95.524591 496.060205 93.6371677 C 497.003917 91.7497444 497.423344 88.6040389 497.528201 84.304908 L 511.474162 85.1437628 C 511.579019 85.7729039 511.579019 86.6117587 511.579019 87.6603272 C 511.579019 94.2663088 509.796453 99.1945808 506.126463 102.445143 C 502.456473 105.695706 497.423344 107.373415 490.817363 107.373415 C 482.848242 107.373415 477.290829 104.856851 474.145124 99.9285787 C 470.999418 95.0003067 469.321708 87.2408998 469.321708 76.8600716 L 469.321708 64.1723926 C 469.678222 46.346728 472.813442 33.2920501 491.23679 33.2396217 Z M 297.356473 34.6027607 L 297.356473 87.1360429 C 297.356473 90.2817485 297.671044 92.5885992 298.405042 93.9517382 C 299.894009 96.8667587 303.752741 96.1222751 305.849878 94.6857362 C 307.060626 93.8673257 308.03656 92.7468087 308.681013 91.4351738 L 308.681013 34.6027607 L 324.724111 34.6027607 L 324.724111 106.21999 L 312.141289 106.21999 L 310.77815 97.4120143 L 310.46358 97.4120143 C 307.003303 104.017996 301.865318 107.373415 295.049623 107.373415 C 284.559219 107.346677 281.993214 99.7894861 281.382173 92.1137327 L 281.34221 91.5718144 C 281.262321 90.3976499 281.224876 89.2247914 281.208518 88.0797546 L 281.208518 34.6027607 L 297.356473 34.6027607 Z M 380.088528 34.6027607 L 380.088528 87.1360429 C 380.088528 90.2817485 380.403099 92.5885992 381.137097 93.9517382 C 382.626064 96.8667587 386.484796 96.1222751 388.581933 94.6857362 C 389.792681 93.8673257 390.768615 92.7468087 391.413068 91.4351738 L 391.413068 34.6027607 L 407.456166 34.6027607 L 407.456166 106.21999 L 394.873344 106.21999 L 393.510205 97.4120143 L 393.195635 97.4120143 C 389.735359 104.017996 384.597373 107.373415 377.781678 107.373415 C 367.291274 107.346677 364.72527 99.7894861 364.114228 92.1137327 L 364.074265 91.5718144 C 363.994377 90.3976499 363.956931 89.2247914 363.940573 88.0797546 L 363.940573 34.6027607 L 380.088528 34.6027607 Z M 250.800032 33.2396217 C 256.042874 33.2396217 260.342005 34.2881902 263.48771 36.490184 C 266.633416 38.6921779 269.045124 42.0475971 270.513119 46.6612986 C 271.981115 51.275 272.715113 57.4615542 272.715113 65.1161043 L 272.715113 75.4969325 C 272.715113 83.1514826 271.981115 89.23318 270.513119 93.8468814 C 269.045124 98.4605828 266.738273 101.816002 263.48771 104.017996 C 260.237148 106.115133 255.83316 107.268558 250.380604 107.268558 C 244.718334 107.373415 240.314346 106.21999 237.063784 104.122853 C 233.813222 101.920859 231.506371 98.5654397 230.143232 93.9517382 C 228.780093 89.3380368 228.150952 83.2563395 228.150952 75.6017894 L 228.150952 65.2209611 C 228.150952 57.566411 228.88495 51.275 230.457802 46.6612986 C 232.030655 41.9427403 234.442363 38.5873211 237.797782 36.490184 C 241.153201 34.393047 245.452332 33.2396217 250.800032 33.2396217 Z M 432.621811 4.50884458 L 432.621811 42.2573108 L 432.726667 42.2573108 C 434.194663 39.5310327 436.082087 37.3290389 438.703508 35.6513292 C 441.151777 34.0047112 444.036719 33.1282731 446.987199 33.1347648 C 450.866903 33.1347648 453.802894 34.1833333 456.004888 36.1756135 C 458.206882 38.2727505 459.779735 41.5233129 460.723447 46.0321575 C 461.637667 50.4001007 462.158265 56.4409407 462.18991 64.059347 L 462.191443 64.8015337 L 462.191443 76.1260736 C 462.191443 86.7166155 460.828303 94.5808793 458.311739 99.6140082 C 455.690318 104.647137 451.705757 107.163701 446.253201 107.163701 C 443.212353 107.163701 440.486074 106.429703 437.96951 105.066564 C 435.742056 103.768558 433.897942 101.908197 432.619841 99.6750483 L 432.412097 99.2994376 L 432.097526 99.2994376 L 430.419817 106.115133 L 417.102997 106.115133 L 417.102997 4.50884458 L 432.621811 4.50884458 Z M 368.449418 8.17883436 L 368.449418 21.1810838 L 352.511177 21.1810838 L 352.511177 106.21999 L 336.782649 106.21999 L 336.782649 21.1810838 L 320.739551 21.1810838 L 320.739551 8.17883436 L 368.449418 8.17883436 Z M 195.540471 8.17883436 L 195.549368 8.21831506 C 195.702992 8.90029808 197.823461 18.3253965 200.15457 29.3057636 L 200.33901 30.1757348 C 200.431417 30.6122051 200.52408 31.0508039 200.616892 31.4910893 L 200.80268 32.3737779 C 200.833667 32.5212237 200.864663 32.6688243 200.895663 32.8165631 L 201.081684 33.7045241 C 201.112686 33.8527505 201.143684 34.0010824 201.174675 34.1495034 L 201.360496 35.0409685 L 201.360496 35.0409685 L 201.630891 36.3438432 C 203.204721 43.9476033 204.707581 51.573842 205.606729 57.0421268 L 206.026156 57.0421268 C 206.888169 52.1367136 208.138966 45.8595566 209.473227 39.4509076 L 209.822988 37.7769188 C 209.998614 36.9392485 210.175209 36.1011759 210.352094 35.2654533 L 210.627389 33.9677196 C 213.194244 21.8944685 215.74837 10.6155298 216.223526 8.52432128 L 216.254224 8.38927119 C 216.285747 8.2506583 216.302128 8.17883436 216.302128 8.17883436 L 232.345226 8.17883436 L 213.785563 74.3435072 L 213.785563 106.115133 L 197.952179 106.115133 L 197.952179 74.448364 L 197.847322 74.448364 L 179.497373 8.17883436 L 195.540471 8.17883436 Z M 250.485461 44.3544479 C 248.283467 44.3544479 246.815471 45.5078732 245.87176 47.9195808 C 244.928048 50.3312883 244.50862 54.0012781 244.50862 59.1392638 L 244.50862 81.473773 C 244.50862 86.7166155 244.928048 90.596319 245.766903 92.9031697 C 246.605757 95.2100204 248.17861 96.3634458 250.485461 96.3634458 C 252.687455 96.3634458 254.260308 95.2100204 255.204019 92.9031697 C 256.147731 90.596319 256.567158 86.7166155 256.567158 81.473773 L 256.567158 59.1392638 C 256.567158 54.0012781 256.147731 50.2264315 255.204019 47.9195808 C 254.260308 45.5078732 252.687455 44.3544479 250.485461 44.3544479 Z M 435.452946 46.4515849 C 434.175003 47.6312244 433.265697 49.087342 432.725029 50.906337 L 432.621811 51.275 L 432.621811 91.9594581 C 433.922036 94.1614519 435.767516 95.6294479 439.018079 95.7343047 C 440.695788 95.7343047 442.058927 95.1051636 443.107496 93.8468814 C 444.156064 92.5885992 444.890062 90.4914622 445.30949 87.5554703 C 445.71214 84.7369182 445.921518 80.8553692 445.937624 75.9108235 L 445.938631 75.2872188 L 445.938631 65.9549591 C 445.938631 60.2926892 445.728917 55.9935583 445.414346 52.9527096 C 444.994919 49.9118609 444.470635 47.7098671 443.526923 46.4515849 C 441.702414 43.8301636 437.759796 43.8616207 435.452946 46.4515849 Z M 490.92222 44.0398773 C 489.139653 44.1447342 487.881371 44.6690184 487.147373 45.6127301 C 486.308518 46.6612986 485.784234 48.2341513 485.469663 50.541002 C 485.161384 52.8017157 485.054514 60.7018825 485.050363 61.0169849 L 485.050236 66.1646728 L 496.794203 66.1646728 L 496.793373 61.6248446 L 496.793236 61.7122499 C 496.787382 63.2993708 496.754477 60.7909373 496.681842 57.7119157 L 496.671921 57.2983077 C 496.605889 54.5919004 496.509592 51.574591 496.374776 50.541002 C 496.060205 48.1292945 495.535921 46.4515849 494.697066 45.5078732 C 493.858211 44.5641616 492.599929 44.0398773 490.92222 44.0398773 Z" stroke-linecap="round" />
</g>
</g>
</g>
</svg>